# xmcd CD database file
#
# Track frame offsets:
#	150
#	19942
#	45057
#	65165
#	87530
#	109950
#	130290
#	145997
#	173540
#	191515
#	211330
#	227540
#	252225
#	271265
#	288957
#	317105
#
# Disc length: 4465 seconds
#
# Revision: 2
# Processed by: cddbd v1.4b41PL1 Copyright (c) Steve Scherf et al.
# Submitted via: Feurio! 1.52 - http://www.feurio.com
#
DISCID=e5116f10
DTITLE=Foghat - The Very Best Of Foghat
DYEAR=1900
DGENRE=
TTITLE0=I Just Want To Make Love To You
TTITLE1=Night Shift
TTITLE2=Ride Ride Ride
TTITLE3=Take It Or Leave It
TTITLE4=Home In My Hand
TTITLE5=Driving Wheel
TTITLE6=Fool For The City
TTITLE7=Eight Days On The Road
TTITLE8=Stone Blue
TTITLE9=Honey Hush
TTITLE10=Maybelline
TTITLE11=Wild Cherry
TTITLE12=Third Time Lucky (First Time I Was A Fool)
TTITLE13=Easy Money
TTITLE14=Chateau Latiffe-59 Boogie
TTITLE15=Slow Ride
EXTD=
EXTT0=
EXTT1=
EXTT2=
EXTT3=
EXTT4=
EXTT5=
EXTT6=
EXTT7=
EXTT8=
EXTT9=
EXTT10=
EXTT11=
EXTT12=
EXTT13=
EXTT14=
EXTT15=
PLAYORDER=
